PathFileType	4	(X/Y/Z)	 s04c0302.trc
DataRate	CameraRate	NumFrames	NumMarkers	Units	OrigDataRate	OrigDataStartFrame	OrigNumFrames
200	200	4	50	mm	200	1001	2000
Frame#	Time	racr			lacr			c7			jug			rlel			rdr			llel			ldr			s2			lic			ric			lasi			rasi			rpsi			lpsi			rgt			lgt			rth1			rth2			rth3			rth4			rlfc			rmfc			rsh1			rsh2			rsh3			rsh4			rlmal			rmmal			rcal			rtoe			rmt5			lth1			lth2			lth4			lth3			llfc			lmfc			lsh1			lsh2			lsh3			lsh4			llmal			lmmal			lcal			ltoe			lmt5			SBIKE			LBIKE			RBIKE			
		X1	Y1	Z1	X2	Y2	Z2	X3	Y3	Z3	X4	Y4	Z4	X5	Y5	Z5	X6	Y6	Z6	X7	Y7	Z7	X8	Y8	Z8	X9	Y9	Z9	X10	Y10	Z10	X11	Y11	Z11	X12	Y12	Z12	X13	Y13	Z13	X14	Y14	Z14	X15	Y15	Z15	X16	Y16	Z16	X17	Y17	Z17	X18	Y18	Z18	X19	Y19	Z19	X20	Y20	Z20	X21	Y21	Z21	X22	Y22	Z22	X23	Y23	Z23	X24	Y24	Z24	X25	Y25	Z25	X26	Y26	Z26	X27	Y27	Z27	X28	Y28	Z28	X29	Y29	Z29	X30	Y30	Z30	X31	Y31	Z31	X32	Y32	Z32	X33	Y33	Z33	X34	Y34	Z34	X35	Y35	Z35	X36	Y36	Z36	X37	Y37	Z37	X38	Y38	Z38	X39	Y39	Z39	X40	Y40	Z40	X41	Y41	Z41	X42	Y42	Z42	X43	Y43	Z43	X44	Y44	Z44	X45	Y45	Z45	X46	Y46	Z46	X47	Y47	Z47	X48	Y48	Z48	X49	Y49	Z49	X50	Y50	Z50	
1001	5.0050	850.930330	1268.795178	-122.186720	866.700388	1227.512973	-420.730644	867.961720	1326.908263	-280.492301	808.232215	1178.218320	-280.212604	594.315896	1139.819741	46.144153	713.840002	914.944982	-70.490261	631.352450	1132.599764	-582.556199	713.040311	923.004439	-453.175440	264.838803	1266.775514	-196.824340	379.394117	1269.652412	-380.542248	445.612740	1215.550879	-71.271643	420.453842	1212.739180	-358.525661	462.933915	1161.560884	-126.832730	313.795989	1296.310181	-157.027484	297.991098	1311.335632	-227.718942	372.688530	1165.419114	-51.841936	340.513636	1193.053489	-413.002983	377.400887	1011.202146	-29.572214	387.816511	924.706119	-43.599923	357.833590	845.276345	-49.114398	421.257544	923.068039	-60.139070	340.747356	699.063032	-78.918973	306.277537	686.868201	-188.197901	284.531754	584.981095	-49.669111	271.195630	496.354335	-67.221579	216.231544	430.214121	-71.585756	299.988871	488.355774	-92.510797	169.871647	282.125081	-80.424838	182.838063	292.661096	-165.248397	101.060507	293.001880	-104.222036	340.242994	118.399096	-170.868092	282.274551	124.199855	-102.267616	398.600140	1124.411119	-428.623378	477.333907	1088.989311	-440.391959	500.734794	1114.694336	-428.503360	526.979406	1018.069797	-458.109430	627.622215	898.695470	-452.693996	656.567857	862.666935	-343.847585	554.697375	818.458462	-472.966030	499.275437	755.460124	-449.075137	415.912414	724.198738	-443.443368	518.453375	734.972995	-421.787123	290.805651	642.338559	-430.219548	291.471086	644.790648	-343.731404	223.836869	685.355469	-386.842508	391.325986	430.576567	-395.865784	322.829649	471.572321	-459.031378	-176.568980	935.769681	-277.559249	-3.284295	86.244881	-484.359707	-15.072489	80.491333	-84.000029	
1002	5.0100	851.245890	1270.416671	-124.392852	868.054250	1224.582647	-421.255705	868.526590	1326.409704	-282.535578	809.367611	1177.501943	-280.684844	595.769736	1140.768347	44.854230	714.163936	914.785702	-70.671517	631.131988	1132.298380	-583.072851	713.019982	923.739312	-453.244389	265.447546	1268.562057	-195.630066	378.572435	1270.188466	-380.093073	447.170184	1216.898469	-71.017785	419.913506	1213.263319	-358.576649	463.510820	1162.459490	-126.371460	314.913115	1297.627642	-156.851658	298.468313	1312.913589	-226.820916	373.983294	1167.143778	-51.208108	340.296726	1194.806797	-412.372782	376.788668	1012.796099	-28.123210	386.166942	926.012594	-41.510186	354.929547	846.961319	-47.456664	419.582535	923.945302	-58.135834	336.445963	700.700857	-77.269838	302.459564	688.644895	-187.005558	279.136051	587.455593	-48.374992	265.103441	498.933240	-65.902459	209.574771	433.279305	-70.357712	293.863319	490.648855	-91.055158	161.997190	285.208454	-79.332590	175.488946	295.751221	-164.153699	93.527492	297.252489	-103.244014	329.689385	118.902133	-170.549297	271.680875	125.222801	-102.190377	398.519340	1127.044184	-426.362505	477.571888	1092.372080	-438.735675	500.796239	1118.449255	-427.244464	528.621000	1021.878959	-455.800231	629.864724	903.597123	-451.921304	660.676274	868.809029	-342.128042	558.397090	823.024851	-471.664673	504.550453	758.014536	-448.409368	421.999298	724.814868	-442.617175	524.298286	737.635795	-421.482307	298.450636	640.295353	-429.929266	300.316929	642.489945	-342.582622	230.978944	682.386841	-386.496415	402.454187	430.451332	-395.784650	333.541251	470.449586	-458.835284	-176.596784	935.775920	-277.650556	-3.281392	86.250516	-484.351376	-15.077093	80.500762	-84.006599	
1003	5.0150	851.638388	1271.846711	-126.584912	869.010149	1221.682071	-421.843905	869.200737	1325.675110	-284.585886	810.053580	1176.791005	-281.091753	597.307354	1141.674675	43.567641	714.366507	914.565858	-70.921655	630.670540	1132.056600	-583.554731	712.526261	924.085751	-452.059929	265.963206	1270.685822	-194.670954	378.073214	1270.994005	-380.093281	448.529035	1218.675928	-70.898606	419.474308	1213.742585	-358.683194	463.907360	1163.758758	-125.861857	316.054206	1299.781342	-156.357571	299.128892	1314.991952	-226.393662	374.795605	1169.308964	-50.804758	339.934257	1196.618662	-411.850761	376.706169	1014.549785	-26.502820	385.182739	927.714206	-39.651987	352.913713	848.887148	-46.099390	418.607374	925.387523	-56.420366	333.386523	702.591588	-76.000017	299.732476	690.803448	-186.251668	274.768315	590.243678	-47.510332	259.677974	501.943728	-64.978136	203.291796	436.721709	-69.895093	288.408851	493.162627	-89.917304	154.215590	289.089451	-78.475727	168.237913	299.493442	-163.208825	85.510305	301.792039	-102.745454	319.076865	119.997980	-170.386106	261.122605	127.026257	-101.999851	398.086936	1129.545658	-424.547928	477.517712	1095.472334	-437.397178	500.499275	1122.060819	-426.348353	529.185457	1025.210733	-453.419997	631.119927	908.352984	-450.779741	663.706762	874.379506	-340.229417	561.347471	826.635015	-470.101439	509.118448	759.859007	-447.769457	427.315352	724.820184	-442.007305	529.485383	739.654331	-421.206389	305.553985	637.357836	-429.858516	308.935476	639.786969	-341.498970	237.274293	678.419279	-386.561039	413.793819	430.092033	-395.602996	344.325499	468.817485	-458.652788	-176.631925	935.786003	-277.737798	-3.268958	86.234143	-484.362714	-15.072644	80.513189	-84.000851	
1004	5.0200	852.123650	1273.057743	-128.738451	869.594789	1218.895601	-422.542414	870.041268	1324.936323	-286.527374	810.325312	1176.319251	-281.589412	598.774626	1142.576273	42.261539	714.544446	914.437156	-71.004489	629.972489	1131.819645	-583.966339	712.764443	925.814479	-453.773135	266.537595	1273.315190	-194.088780	377.839816	1271.712621	-380.007467	449.565606	1220.887827	-70.775361	419.136283	1214.172848	-358.843755	464.108861	1165.382100	-125.388549	317.260100	1302.339961	-155.978235	299.892923	1317.426317	-226.253387	375.609334	1171.775661	-51.040439	339.369017	1198.496263	-411.381570	376.975069	1016.679304	-25.226590	384.720098	929.589381	-38.115549	351.832823	851.042722	-45.036303	418.024276	927.074317	-54.530280	331.701329	704.665115	-75.077992	298.149060	693.114134	-185.715164	271.461595	593.291781	-46.962231	254.959695	505.132666	-64.437659	197.680229	441.016441	-69.166969	283.616970	496.236895	-89.206255	146.531045	293.805326	-77.980794	160.776452	304.161680	-162.713694	77.955638	307.349140	-102.577137	307.524259	121.011631	-171.176994	250.677839	129.790467	-101.911411	397.398607	1131.993397	-423.512975	476.965800	1098.414865	-436.086032	499.770285	1125.226237	-425.384867	529.105656	1028.212607	-451.257385	631.571353	913.216622	-448.937933	665.417385	879.161315	-338.211968	563.614578	829.254841	-468.640201	512.975175	760.977221	-447.122640	431.994697	724.115309	-441.312230	533.762039	740.876210	-420.826603	312.134491	633.631268	-430.004826	317.153494	636.399477	-340.979770	242.910886	673.515286	-387.142090	424.869134	429.432886	-395.397917	354.605616	466.607453	-458.651105	-176.653249	935.801838	-277.802766	-3.273789	86.224523	-484.358890	-15.081368	80.509654	-83.991518	
